{"title":"Electric City (Web Series) 720p -st4sis","uid":7603486,"size":776642974,"categoryP":"video","categoryS":"hd___tv_shows","magnet":"?xt=urn:btih:3bf9cb03ebcdb1723883ab71ed87b4e38200aed4&amp;dn=Electric+City+%28Web+Series%29+720p+-st4sis&amp;tr=udp%3A%2F%2Ftracker.openbittorrent.com%3A80&amp;tr=udp%3A%2F%2Fopen.demonii.com%3A1337&amp;tr=udp%3A%2F%2Ftracker.coppersurfer.tk%3A6969&amp;tr=udp%3A%2F%2Fexodus.desync.com%3A6969","seeders":1,"leechers":0,"uploader":"st4sis","files":1,"time":1346883574,"description":"A rip of the Electric City web series created by Tom Hanks originally posted on yahoo to stream only.\n\nI've collected all 20 5-minute episodes and created one movie-length feature. In my opinion it really is too good to not share with anyone.\n\n---Info---\nDuration: 01:22:20.61\nVideo Bitrate: 1257 kb/s\nVideo: h264 (High) (avc1 / 0x31637661), yuv420p, 1360x768\nAudio: mp3 (mp4a / 0x6134706D), 48000 Hz, stereo, s16, 199\n----------\n\nAdvanced:\n\nMetadata:\nmajor_brand : isom\nminor_version : 512\ncompatible_brands: isomiso2avc1mp41\nencoder : Lavf54.22.100\nstart: 0.000000, bitrate: 1257 kb/s\nStream #0:0(und): Video: h264 (High) (avc1 / 0x31637661), yuv420p, 1360x768\n[SAR 256:255 DAR 16:9], 1052 kb/s, 24 fps, 24 tbr, 24 tbn, 48 tbc\nStream #0:1(und): Audio: mp3 (mp4a / 0x6134706D), 48000 Hz, stereo, s16, 199\nkb/s","torrent":{"xt":"urn:btih:3bf9cb03ebcdb1723883ab71ed87b4e38200aed4","amp;dn":"Electric+City+%28Web+Series%29+720p+-st4sis","amp;tr":["udp%3A%2F%2Ftracker.openbittorrent.com%3A80","udp%3A%2F%2Fopen.demonii.com%3A1337","udp%3A%2F%2Ftracker.coppersurfer.tk%3A6969","udp%3A%2F%2Fexodus.desync.com%3A6969"],"infoHash":"3bf9cb03ebcdb1723883ab71ed87b4e38200aed4","infoHashBuffer":{"type":"Buffer","data":[59,249,203,3,235,205,177,114,56,131,171,113,237,135,180,227,130,0,174,212]},"announce":[],"urlList":[]}}